<svg xmlns="http://www.w3.org/2000/svg" xmlns:xlink="http://www.w3.org/1999/xlink" xmlns:sketch="http://www.bohemiancoding.com/sketch/ns" viewBox="0 0 90 112.5" version="1.1" x="0px" y="0px"><title>Artboard 8</title><desc>Created with Sketch.</desc><g stroke="none" stroke-width="1" fill="none" fill-rule="evenodd" sketch:type="MSPage"><g sketch:type="MSArtboardGroup" fill="#000000"><path d="M31.0023584,27 C29.3442017,27 28,28.3424683 28,29.995507 L28,66 L30.3397224,66 C30.6675597,66 31.042469,65.7508663 31.1739612,65.4507217 L32.5564605,62.2950262 C33.3537053,60.4752335 35.605969,59 37.6031887,59 L59.0035095,59 C60.6584255,59 62,57.6657405 62,56.0038998 L62,29.9961002 C62,28.3413998 60.6566876,27 58.9976416,27 L31.0023584,27 Z M38,46 C39.1045695,46 40,45.1045695 40,44 C40,42.8954305 39.1045695,42 38,42 C36.8954305,42 36,42.8954305 36,44 C36,45.1045695 36.8954305,46 38,46 Z M45,46 C46.1045695,46 47,45.1045695 47,44 C47,42.8954305 46.1045695,42 45,42 C43.8954305,42 43,42.8954305 43,44 C43,45.1045695 43.8954305,46 45,46 Z M52,46 C53.1045695,46 54,45.1045695 54,44 C54,42.8954305 53.1045695,42 52,42 C50.8954305,42 50,42.8954305 50,44 C50,45.1045695 50.8954305,46 52,46 Z" sketch:type="MSShapeGroup"/></g></g><text x="0" y="105" fill="#000000" font-size="5px" font-weight="bold" font-family="'Helvetica Neue', Helvetica, Arial-Unicode, Arial, Sans-serif">Created by Ludovic Riffault</text><text x="0" y="110" fill="#000000" font-size="5px" font-weight="bold" font-family="'Helvetica Neue', Helvetica, Arial-Unicode, Arial, Sans-serif">from the Noun Project</text></svg>