<?xml version="1.0" encoding="UTF-8" standalone="no"?>
<svg
   xmlns:dc="http://purl.org/dc/elements/1.1/"
   xmlns:cc="http://creativecommons.org/ns#"
   xmlns:rdf="http://www.w3.org/1999/02/22-rdf-syntax-ns#"
   xmlns:svg="http://www.w3.org/2000/svg"
   xmlns="http://www.w3.org/2000/svg"
   xmlns:sodipodi="http://sodipodi.sourceforge.net/DTD/sodipodi-0.dtd"
   xmlns:inkscape="http://www.inkscape.org/namespaces/inkscape"
   width="1792"
   height="1792"
   viewBox="0 0 1792 1792"
   id="svg3336"
   version="1.1"
   inkscape:version="0.91 r13725"
   sodipodi:docname="center-wide.svg">
  <metadata
     id="metadata3344">
    <rdf:RDF>
      <cc:Work
         rdf:about="">
        <dc:format>image/svg+xml</dc:format>
        <dc:type
           rdf:resource="http://purl.org/dc/dcmitype/StillImage" />
        <dc:title></dc:title>
      </cc:Work>
    </rdf:RDF>
  </metadata>
  <defs
     id="defs3342" />
  <sodipodi:namedview
     pagecolor="#ffffff"
     bordercolor="#666666"
     borderopacity="1"
     objecttolerance="10"
     gridtolerance="10"
     guidetolerance="10"
     inkscape:pageopacity="0"
     inkscape:pageshadow="2"
     inkscape:window-width="2560"
     inkscape:window-height="1387"
     id="namedview3340"
     showgrid="false"
     inkscape:zoom="0.60019314"
     inkscape:cx="913.98646"
     inkscape:cy="1039.1426"
     inkscape:window-x="-8"
     inkscape:window-y="-8"
     inkscape:window-maximized="1"
     inkscape:current-layer="svg3336" />
  <path
     d="m 1.2489,1344 0,128 c 0,17.3333 6.3333,32.3333 19,45 12.6667,12.6667 27.6667,19 45,19 l 1664,0 c 17.3333,0 32.3333,-6.3333 45,-19 12.6667,-12.6667 19,-27.6667 19,-45 l 0,-128 c 0,-17.3333 -6.3333,-32.3333 -19,-45 -12.6667,-12.6667 -27.6667,-19 -45,-19 l -1664,0 c -17.3333,0 -32.3333,6.3333 -45,19 -12.6667,12.6667 -19,27.6667 -19,45 z"
     id="path3400" />
  <path
     d="m 1.2489,192 0,128 c 0,17.33333 6.3333,32.33333 19,45 12.6667,12.66667 27.6667,19 45,19 l 1664,0 c 17.3333,0 32.3333,-6.33333 45,-19 12.6667,-12.66667 19,-27.66667 19,-45 l 0,-128 c 0,-17.33333 -6.3333,-32.33333 -19,-45 -12.6667,-12.66667 -27.6667,-19 -45,-19 l -1664,0 c -17.3333,0 -32.3333,6.33333 -45,19 -12.6667,12.66667 -19,27.66667 -19,45 z"
     id="path3338"
     inkscape:connector-curvature="0"
     sodipodi:nodetypes="sssssssssssss" />
  <path
     id="path3361"
     d="m 146,576 0,512 c 0,17.3333 6.3333,32.3333 19,45 12.6667,12.6667 27.6667,19 45,19 l 1370,0 c 17.3333,0 32.3333,-6.3333 45,-19 12.6667,-12.6667 19,-27.6667 19,-45 l 0,-512 c 0,-17.33333 -6.3333,-32.33333 -19,-45 -12.6667,-12.66667 -27.6667,-19 -45,-19 l -1370,0 c -17.3333,0 -32.3333,6.33333 -45,19 -12.6667,12.66667 -19,27.66667 -19,45 z"
     inkscape:connector-curvature="0"
     sodipodi:nodetypes="sssssssssssss" />
</svg>
