<svg width="1792" height="1408" viewBox="0 0 1792 1408" version="1.1" xmlns="http://www.w3.org/2000/svg" xmlns:xlink="http://www.w3.org/1999/xlink">
<title>center-top-narrow</title>
<desc>Created using Figma</desc>
<g id="Canvas" transform="translate(-3299 -1333)">
<g id="center-top-narrow">
<g id="path3400">
<use xlink:href="#path0_fill" transform="matrix(1 0 0 -1 3299 1589)"/>
</g>
<g id="path3361">
<use xlink:href="#path1_fill" transform="matrix(1 0 0 -1 3703.75 2741)"/>
</g>
<g id="path3402">
<use xlink:href="#path2_fill" transform="matrix(1 0 0 -1 3299 1973)"/>
</g>
</g>
</g>
<defs>
<path id="path0_fill" d="M 5.58853e-08 64L 5.58853e-08 192C 5.58853e-08 209.333 6.3333 224.333 19 237C 31.6667 249.667 46.6667 256 64 256L 1728 256C 1745.33 256 1760.33 249.667 1773 237C 1785.67 224.333 1792 209.333 1792 192L 1792 64C 1792 46.6667 1785.67 31.6667 1773 19C 1760.33 6.3333 1745.33 0 1728 0L 64 0C 46.6667 0 31.6667 6.3333 19 19C 6.3333 31.6667 5.58853e-08 46.6667 5.58853e-08 64L 5.58853e-08 64Z"/>
<path id="path1_fill" d="M 0 64L 0 576C 0 593.333 6.3333 608.333 19 621C 31.6667 633.667 46.6667 640 64 640L 914 640C 931.333 640 946.333 633.667 959 621C 971.667 608.333 978 593.333 978 576L 978 64C 978 46.6667 971.667 31.6667 959 19C 946.333 6.33333 931.333 0 914 0L 64 0C 46.6667 0 31.6667 6.33333 19 19C 6.3333 31.6667 0 46.6667 0 64Z"/>
<path id="path2_fill" d="M 5.58853e-08 64L 5.58853e-08 192C 5.58853e-08 209.333 6.3333 224.333 19 237C 31.6667 249.667 46.6667 256 64 256L 1728 256C 1745.33 256 1760.33 249.667 1773 237C 1785.67 224.333 1792 209.333 1792 192L 1792 64C 1792 46.6667 1785.67 31.6667 1773 19C 1760.33 6.33333 1745.33 0 1728 0L 64 0C 46.6667 0 31.6667 6.33333 19 19C 6.3333 31.6667 5.58853e-08 46.6667 5.58853e-08 64L 5.58853e-08 64Z"/>
</defs>
</svg>
