<?xml version="1.0" encoding="UTF-8" standalone="no"?>
<svg
   xmlns:dc="http://purl.org/dc/elements/1.1/"
   xmlns:cc="http://creativecommons.org/ns#"
   xmlns:rdf="http://www.w3.org/1999/02/22-rdf-syntax-ns#"
   xmlns:svg="http://www.w3.org/2000/svg"
   xmlns="http://www.w3.org/2000/svg"
   xmlns:sodipodi="http://sodipodi.sourceforge.net/DTD/sodipodi-0.dtd"
   xmlns:inkscape="http://www.inkscape.org/namespaces/inkscape"
   width="1792"
   height="1792"
   viewBox="0 0 1792 1792"
   id="svg3336"
   version="1.1"
   inkscape:version="0.91 r13725"
   sodipodi:docname="float-right.svg">
  <metadata
     id="metadata3344">
    <rdf:RDF>
      <cc:Work
         rdf:about="">
        <dc:format>image/svg+xml</dc:format>
        <dc:type
           rdf:resource="http://purl.org/dc/dcmitype/StillImage" />
        <dc:title></dc:title>
      </cc:Work>
    </rdf:RDF>
  </metadata>
  <defs
     id="defs3342" />
  <sodipodi:namedview
     pagecolor="#ffffff"
     bordercolor="#666666"
     borderopacity="1"
     objecttolerance="10"
     gridtolerance="10"
     guidetolerance="10"
     inkscape:pageopacity="0"
     inkscape:pageshadow="2"
     inkscape:window-width="2560"
     inkscape:window-height="1387"
     id="namedview3340"
     showgrid="false"
     inkscape:zoom="0.60019314"
     inkscape:cx="913.98646"
     inkscape:cy="1039.1426"
     inkscape:window-x="-8"
     inkscape:window-y="-8"
     inkscape:window-maximized="1"
     inkscape:current-layer="svg3336" />
  <path
     d="m 1792,1344 0,128 c 0,17.3333 -6.3333,32.3333 -19,45 -12.6667,12.6667 -27.6667,19 -45,19 l -1664,0 c -17.333333,0 -32.333333,-6.3333 -45,-19 C 6.3333333,1504.3333 0,1489.3333 0,1472 l 0,-128 c 0,-17.3333 6.3333333,-32.3333 19,-45 12.666667,-12.6667 27.666667,-19 45,-19 l 1664,0 c 17.3333,0 32.3333,6.3333 45,19 12.6667,12.6667 19,27.6667 19,45 z M 692,960 l 0,128 c 0,17.3333 -6.33333,32.3333 -19,45 -12.66667,12.6667 -27.66667,19 -45,19 l -564,0 c -17.333333,0 -32.333333,-6.3333 -45,-19 C 6.3333333,1120.3333 0,1105.3333 0,1088 L 0,960 c 0,-17.33333 6.3333333,-32.33333 19,-45 12.666667,-12.66667 27.666667,-19 45,-19 l 564,0 c 17.33333,0 32.33333,6.33333 45,19 12.66667,12.66667 19,27.66667 19,45 z m 0,-384 0,128 c 0,17.33333 -6.33333,32.33333 -19,45 -12.66667,12.66667 -27.66667,19 -45,19 L 64,768 C 46.666667,768 31.666667,761.66667 19,749 6.3333333,736.33333 0,721.33333 0,704 L 0,576 c 0,-17.33333 6.3333333,-32.33333 19,-45 12.666667,-12.66667 27.666667,-19 45,-19 l 564,0 c 17.33333,0 32.33333,6.33333 45,19 12.66667,12.66667 19,27.66667 19,45 z m 0,-384 0,128 c 0,17.33333 -6.33333,32.33333 -19,45 -12.66667,12.66667 -27.66667,19 -45,19 L 64,384 C 46.666667,384 31.666667,377.66667 19,365 6.3333333,352.33333 0,337.33333 0,320 L 0,192 c 0,-17.33333 6.3333333,-32.33333 19,-45 12.666667,-12.66667 27.666667,-19 45,-19 l 564,0 c 17.33333,0 32.33333,6.33333 45,19 12.66667,12.66667 19,27.66667 19,45 z"
     id="path3338"
     inkscape:connector-curvature="0"
     sodipodi:nodetypes="ssssssssssssssssssssssssssssssssssssssssssssssssssss" />
  <path
     id="path3361"
     d="m 1793.2489,192 0,888 c 0,17.3333 -6.3333,32.3333 -19,45 -12.6667,12.6667 -27.6667,19 -45,19 l -834,0 c -17.3333,0 -32.3333,-6.3333 -45,-19 -12.6667,-12.6667 -19,-27.6667 -19,-45 l 0,-888 c 0,-17.33333 6.3333,-32.33333 19,-45 12.6667,-12.66667 27.6667,-19 45,-19 l 834,0 c 17.3333,0 32.3333,6.33333 45,19 12.6667,12.66667 19,27.66667 19,45 z"
     inkscape:connector-curvature="0"
     sodipodi:nodetypes="sssssssssssss" />
</svg>
